<mxfile host="app.diagrams.net" modified="2023-10-31T12:00:02.744Z" agent="Mozilla/5.0 (Windows NT 10.0; Win64; x64) AppleWebKit/537.36 (KHTML, like Gecko) Chrome/116.0.0.0 Safari/537.36 OPR/102.0.0.0 (Edition std-1)" version="22.0.8" etag="H4jPRVYNyhx51hn_J578" type="github">
  <diagram name="PÃ¡gina-1" id="9B0xEWgJ4CP_nM2nFrGb">
    <mxGraphModel>
      <root>
        <mxCell id="0" />
        <mxCell id="1" parent="0" />
      </root>
    </mxGraphModel>
  </diagram>
</mxfile>
